<?xml version="1.0" encoding="UTF-8"?>
<!-- Generator: Adobe Illustrator 15.0.2, SVG Export Plug-In . SVG Version: 6.00 Build 0)  -->
<!DOCTYPE svg PUBLIC "-//W3C//DTD SVG 1.1//EN" "http://www.w3.org/Graphics/SVG/1.1/DTD/svg11.dtd">
<svg xmlns="http://www.w3.org/2000/svg" xmlns:xlink="http://www.w3.org/1999/xlink" version="1.1" id="Layer_1" x="0px" y="0px" width="512px" height="533.342px" viewBox="0 0 512 533.342" enable-background="new 0 0 512 533.342" xml:space="preserve">
<path d="M106.664,256h64v106.658h106.678v64H170.664v106.684h-64V426.658H0v-64h106.664V256z M256,0  c74.658,0,106.658,42.664,95.895,132.224C361.526,137.737,368,148.112,368,160c0,14.546-9.711,26.822-23,30.717  c-5.539,19.783-14.158,37.296-25,51.31v67.315c35.553,7.105,64,10.658,106.658,32c42.684,21.316,56.895,40.882,85.342,69.316V512  H192v-64h106.658V341.342H192v-99.315v-7.362h-5.276c-8.375-12.604-15.111-27.493-19.73-43.947C153.704,186.822,144,174.546,144,160  c0-11.888,6.48-22.263,16.105-27.776C149.336,42.664,181.336,0,256,0z M0,512v-64h85.336v64H0z" fill="#FFFFFF"/>
</svg>
